<?xml version="1.0" encoding="utf-8" standalone="no"?>
<!DOCTYPE svg PUBLIC "-//W3C//DTD SVG 1.1//EN"
  "http://www.w3.org/Graphics/SVG/1.1/DTD/svg11.dtd">
<svg xmlns:xlink="http://www.w3.org/1999/xlink" width="720pt" height="360pt" viewBox="0 0 720 360" xmlns="http://www.w3.org/2000/svg" version="1.1">
 <metadata>
  <rdf:RDF xmlns:dc="http://purl.org/dc/elements/1.1/" xmlns:cc="http://creativecommons.org/ns#" xmlns:rdf="http://www.w3.org/1999/02/22-rdf-syntax-ns#">
   <cc:Work>
    <dc:type rdf:resource="http://purl.org/dc/dcmitype/StillImage"/>
    <dc:date>2023-06-12T10:15:27.296588</dc:date>
    <dc:format>image/svg+xml</dc:format>
    <dc:creator>
     <cc:Agent>
      <dc:title>Matplotlib v3.7.1, https://matplotlib.org/</dc:title>
     </cc:Agent>
    </dc:creator>
   </cc:Work>
  </rdf:RDF>
 </metadata>
 <defs>
  <style type="text/css">*{stroke-linejoin: round; stroke-linecap: butt}</style>
 </defs>
 <g id="figure_1">
  <g id="patch_1">
   <path d="M 0 360 
L 720 360 
L 720 0 
L 0 0 
z
" style="fill: #ffffff"/>
  </g>
  <g id="axes_1">
   <g id="patch_2">
    <path d="M 90 320.4 
L 648 320.4 
L 648 43.2 
L 90 43.2 
z
" style="fill: #ffffff"/>
   </g>
   <g id="matplotlib.axis_1">
    <g id="xtick_1">
     <g id="line2d_1">
      <path d="M 115.363636 320.4 
L 115.363636 43.2 
" clip-path="url(#pbbc62acb06)" style="fill: none; stroke: #b0b0b0; stroke-opacity: 0.6; stroke-width: 0.8; stroke-linecap: square"/>
     </g>
     <g id="line2d_2">
      <defs>
       <path id="mcb27bbad81" d="M 0 0 
L 0 3.5 
" style="stroke: #000000; stroke-width: 0.8"/>
      </defs>
      <g>
       <use xlink:href="#mcb27bbad81" x="115.363636" y="320.4" style="stroke: #000000; stroke-width: 0.8"/>
      </g>
     </g>
     <g id="text_1">
      <!-- 2:00 -->
      <g transform="translate(109.375326 348.651873) rotate(-45) scale(0.1 -0.1)">
       <defs>
        <path id="DejaVuSans-32" d="M 1228 531 
L 3431 531 
L 3431 0 
L 469 0 
L 469 531 
Q 828 903 1448 1529 
Q 2069 2156 2228 2338 
Q 2531 2678 2651 2914 
Q 2772 3150 2772 3378 
Q 2772 3750 2511 3984 
Q 2250 4219 1831 4219 
Q 1534 4219 1204 4116 
Q 875 4013 500 3803 
L 500 4441 
Q 881 4594 1212 4672 
Q 1544 4750 1819 4750 
Q 2544 4750 2975 4387 
Q 3406 4025 3406 3419 
Q 3406 3131 3298 2873 
Q 3191 2616 2906 2266 
Q 2828 2175 2409 1742 
Q 1991 1309 1228 531 
z
" transform="scale(0.015625)"/>
        <path id="DejaVuSans-3a" d="M 750 794 
L 1409 794 
L 1409 0 
L 750 0 
L 750 794 
z
M 750 3309 
L 1409 3309 
L 1409 2516 
L 750 2516 
L 750 3309 
z
" transform="scale(0.015625)"/>
        <path id="DejaVuSans-30" d="M 2034 4250 
Q 1547 4250 1301 3770 
Q 1056 3291 1056 2328 
Q 1056 1369 1301 889 
Q 1547 409 2034 409 
Q 2525 409 2770 889 
Q 3016 1369 3016 2328 
Q 3016 3291 2770 3770 
Q 2525 4250 2034 4250 
z
M 2034 4750 
Q 2819 4750 3233 4129 
Q 3647 3509 3647 2328 
Q 3647 1150 3233 529 
Q 2819 -91 2034 -91 
Q 1250 -91 836 529 
Q 422 1150 422 2328 
Q 422 3509 836 4129 
Q 1250 4750 2034 4750 
z
" transform="scale(0.015625)"/>
       </defs>
       <use xlink:href="#DejaVuSans-32"/>
       <use xlink:href="#DejaVuSans-3a" x="63.623047"/>
       <use xlink:href="#DejaVuSans-30" x="97.314453"/>
       <use xlink:href="#DejaVuSans-30" x="160.9375"/>
      </g>
     </g>
    </g>
    <g id="xtick_2">
     <g id="line2d_3">
      <path d="M 161.479339 320.4 
L 161.479339 43.2 
" clip-path="url(#pbbc62acb06)" style="fill: none; stroke: #b0b0b0; stroke-opacity: 0.6; stroke-width: 0.8; stroke-linecap: square"/>
     </g>
     <g id="line2d_4">
      <g>
       <use xlink:href="#mcb27bbad81" x="161.479339" y="320.4" style="stroke: #000000; stroke-width: 0.8"/>
      </g>
     </g>
     <g id="text_2">
      <!-- 4:00 -->
      <g transform="translate(155.491028 348.651873) rotate(-45) scale(0.1 -0.1)">
       <defs>
        <path id="DejaVuSans-34" d="M 2419 4116 
L 825 1625 
L 2419 1625 
L 2419 4116 
z
M 2253 4666 
L 3047 4666 
L 3047 1625 
L 3713 1625 
L 3713 1100 
L 3047 1100 
L 3047 0 
L 2419 0 
L 2419 1100 
L 313 1100 
L 313 1709 
L 2253 4666 
z
" transform="scale(0.015625)"/>
       </defs>
       <use xlink:href="#DejaVuSans-34"/>
       <use xlink:href="#DejaVuSans-3a" x="63.623047"/>
       <use xlink:href="#DejaVuSans-30" x="97.314453"/>
       <use xlink:href="#DejaVuSans-30" x="160.9375"/>
      </g>
     </g>
    </g>
    <g id="xtick_3">
     <g id="line2d_5">
      <path d="M 207.595041 320.4 
L 207.595041 43.2 
" clip-path="url(#pbbc62acb06)" style="fill: none; stroke: #b0b0b0; stroke-opacity: 0.6; stroke-width: 0.8; stroke-linecap: square"/>
     </g>
     <g id="line2d_6">
      <g>
       <use xlink:href="#mcb27bbad81" x="207.595041" y="320.4" style="stroke: #000000; stroke-width: 0.8"/>
      </g>
     </g>
     <g id="text_3">
      <!-- 6:00 -->
      <g transform="translate(201.606731 348.651873) rotate(-45) scale(0.1 -0.1)">
       <defs>
        <path id="DejaVuSans-36" d="M 2113 2584 
Q 1688 2584 1439 2293 
Q 1191 2003 1191 1497 
Q 1191 994 1439 701 
Q 1688 409 2113 409 
Q 2538 409 2786 701 
Q 3034 994 3034 1497 
Q 3034 2003 2786 2293 
Q 2538 2584 2113 2584 
z
M 3366 4563 
L 3366 3988 
Q 3128 4100 2886 4159 
Q 2644 4219 2406 4219 
Q 1781 4219 1451 3797 
Q 1122 3375 1075 2522 
Q 1259 2794 1537 2939 
Q 1816 3084 2150 3084 
Q 2853 3084 3261 2657 
Q 3669 2231 3669 1497 
Q 3669 778 3244 343 
Q 2819 -91 2113 -91 
Q 1303 -91 875 529 
Q 447 1150 447 2328 
Q 447 3434 972 4092 
Q 1497 4750 2381 4750 
Q 2619 4750 2861 4703 
Q 3103 4656 3366 4563 
z
" transform="scale(0.015625)"/>
       </defs>
       <use xlink:href="#DejaVuSans-36"/>
       <use xlink:href="#DejaVuSans-3a" x="63.623047"/>
       <use xlink:href="#DejaVuSans-30" x="97.314453"/>
       <use xlink:href="#DejaVuSans-30" x="160.9375"/>
      </g>
     </g>
    </g>
    <g id="xtick_4">
     <g id="line2d_7">
      <path d="M 253.710744 320.4 
L 253.710744 43.2 
" clip-path="url(#pbbc62acb06)" style="fill: none; stroke: #b0b0b0; stroke-opacity: 0.6; stroke-width: 0.8; stroke-linecap: square"/>
     </g>
     <g id="line2d_8">
      <g>
       <use xlink:href="#mcb27bbad81" x="253.710744" y="320.4" style="stroke: #000000; stroke-width: 0.8"/>
      </g>
     </g>
     <g id="text_4">
      <!-- 8:00 -->
      <g transform="translate(247.722433 348.651873) rotate(-45) scale(0.1 -0.1)">
       <defs>
        <path id="DejaVuSans-38" d="M 2034 2216 
Q 1584 2216 1326 1975 
Q 1069 1734 1069 1313 
Q 1069 891 1326 650 
Q 1584 409 2034 409 
Q 2484 409 2743 651 
Q 3003 894 3003 1313 
Q 3003 1734 2745 1975 
Q 2488 2216 2034 2216 
z
M 1403 2484 
Q 997 2584 770 2862 
Q 544 3141 544 3541 
Q 544 4100 942 4425 
Q 1341 4750 2034 4750 
Q 2731 4750 3128 4425 
Q 3525 4100 3525 3541 
Q 3525 3141 3298 2862 
Q 3072 2584 2669 2484 
Q 3125 2378 3379 2068 
Q 3634 1759 3634 1313 
Q 3634 634 3220 271 
Q 2806 -91 2034 -91 
Q 1263 -91 848 271 
Q 434 634 434 1313 
Q 434 1759 690 2068 
Q 947 2378 1403 2484 
z
M 1172 3481 
Q 1172 3119 1398 2916 
Q 1625 2713 2034 2713 
Q 2441 2713 2670 2916 
Q 2900 3119 2900 3481 
Q 2900 3844 2670 4047 
Q 2441 4250 2034 4250 
Q 1625 4250 1398 4047 
Q 1172 3844 1172 3481 
z
" transform="scale(0.015625)"/>
       </defs>
       <use xlink:href="#DejaVuSans-38"/>
       <use xlink:href="#DejaVuSans-3a" x="63.623047"/>
       <use xlink:href="#DejaVuSans-30" x="97.314453"/>
       <use xlink:href="#DejaVuSans-30" x="160.9375"/>
      </g>
     </g>
    </g>
    <g id="xtick_5">
     <g id="line2d_9">
      <path d="M 299.826446 320.4 
L 299.826446 43.2 
" clip-path="url(#pbbc62acb06)" style="fill: none; stroke: #b0b0b0; stroke-opacity: 0.6; stroke-width: 0.8; stroke-linecap: square"/>
     </g>
     <g id="line2d_10">
      <g>
       <use xlink:href="#mcb27bbad81" x="299.826446" y="320.4" style="stroke: #000000; stroke-width: 0.8"/>
      </g>
     </g>
     <g id="text_5">
      <!-- 10:00 -->
      <g transform="translate(291.588652 353.15084) rotate(-45) scale(0.1 -0.1)">
       <defs>
        <path id="DejaVuSans-31" d="M 794 531 
L 1825 531 
L 1825 4091 
L 703 3866 
L 703 4441 
L 1819 4666 
L 2450 4666 
L 2450 531 
L 3481 531 
L 3481 0 
L 794 0 
L 794 531 
z
" transform="scale(0.015625)"/>
       </defs>
       <use xlink:href="#DejaVuSans-31"/>
       <use xlink:href="#DejaVuSans-30" x="63.623047"/>
       <use xlink:href="#DejaVuSans-3a" x="127.246094"/>
       <use xlink:href="#DejaVuSans-30" x="160.9375"/>
       <use xlink:href="#DejaVuSans-30" x="224.560547"/>
      </g>
     </g>
    </g>
    <g id="xtick_6">
     <g id="line2d_11">
      <path d="M 345.942149 320.4 
L 345.942149 43.2 
" clip-path="url(#pbbc62acb06)" style="fill: none; stroke: #b0b0b0; stroke-opacity: 0.6; stroke-width: 0.8; stroke-linecap: square"/>
     </g>
     <g id="line2d_12">
      <g>
       <use xlink:href="#mcb27bbad81" x="345.942149" y="320.4" style="stroke: #000000; stroke-width: 0.8"/>
      </g>
     </g>
     <g id="text_6">
      <!-- 12:00 -->
      <g transform="translate(337.704355 353.15084) rotate(-45) scale(0.1 -0.1)">
       <use xlink:href="#DejaVuSans-31"/>
       <use xlink:href="#DejaVuSans-32" x="63.623047"/>
       <use xlink:href="#DejaVuSans-3a" x="127.246094"/>
       <use xlink:href="#DejaVuSans-30" x="160.9375"/>
       <use xlink:href="#DejaVuSans-30" x="224.560547"/>
      </g>
     </g>
    </g>
    <g id="xtick_7">
     <g id="line2d_13">
      <path d="M 392.057851 320.4 
L 392.057851 43.2 
" clip-path="url(#pbbc62acb06)" style="fill: none; stroke: #b0b0b0; stroke-opacity: 0.6; stroke-width: 0.8; stroke-linecap: square"/>
     </g>
     <g id="line2d_14">
      <g>
       <use xlink:href="#mcb27bbad81" x="392.057851" y="320.4" style="stroke: #000000; stroke-width: 0.8"/>
      </g>
     </g>
     <g id="text_7">
      <!-- 14:00 -->
      <g transform="translate(383.820057 353.15084) rotate(-45) scale(0.1 -0.1)">
       <use xlink:href="#DejaVuSans-31"/>
       <use xlink:href="#DejaVuSans-34" x="63.623047"/>
       <use xlink:href="#DejaVuSans-3a" x="127.246094"/>
       <use xlink:href="#DejaVuSans-30" x="160.9375"/>
       <use xlink:href="#DejaVuSans-30" x="224.560547"/>
      </g>
     </g>
    </g>
    <g id="xtick_8">
     <g id="line2d_15">
      <path d="M 438.173554 320.4 
L 438.173554 43.2 
" clip-path="url(#pbbc62acb06)" style="fill: none; stroke: #b0b0b0; stroke-opacity: 0.6; stroke-width: 0.8; stroke-linecap: square"/>
     </g>
     <g id="line2d_16">
      <g>
       <use xlink:href="#mcb27bbad81" x="438.173554" y="320.4" style="stroke: #000000; stroke-width: 0.8"/>
      </g>
     </g>
     <g id="text_8">
      <!-- 16:00 -->
      <g transform="translate(429.93576 353.15084) rotate(-45) scale(0.1 -0.1)">
       <use xlink:href="#DejaVuSans-31"/>
       <use xlink:href="#DejaVuSans-36" x="63.623047"/>
       <use xlink:href="#DejaVuSans-3a" x="127.246094"/>
       <use xlink:href="#DejaVuSans-30" x="160.9375"/>
       <use xlink:href="#DejaVuSans-30" x="224.560547"/>
      </g>
     </g>
    </g>
    <g id="xtick_9">
     <g id="line2d_17">
      <path d="M 484.289256 320.4 
L 484.289256 43.2 
" clip-path="url(#pbbc62acb06)" style="fill: none; stroke: #b0b0b0; stroke-opacity: 0.6; stroke-width: 0.8; stroke-linecap: square"/>
     </g>
     <g id="line2d_18">
      <g>
       <use xlink:href="#mcb27bbad81" x="484.289256" y="320.4" style="stroke: #000000; stroke-width: 0.8"/>
      </g>
     </g>
     <g id="text_9">
      <!-- 18:00 -->
      <g transform="translate(476.051462 353.15084) rotate(-45) scale(0.1 -0.1)">
       <use xlink:href="#DejaVuSans-31"/>
       <use xlink:href="#DejaVuSans-38" x="63.623047"/>
       <use xlink:href="#DejaVuSans-3a" x="127.246094"/>
       <use xlink:href="#DejaVuSans-30" x="160.9375"/>
       <use xlink:href="#DejaVuSans-30" x="224.560547"/>
      </g>
     </g>
    </g>
    <g id="xtick_10">
     <g id="line2d_19">
      <path d="M 530.404959 320.4 
L 530.404959 43.2 
" clip-path="url(#pbbc62acb06)" style="fill: none; stroke: #b0b0b0; stroke-opacity: 0.6; stroke-width: 0.8; stroke-linecap: square"/>
     </g>
     <g id="line2d_20">
      <g>
       <use xlink:href="#mcb27bbad81" x="530.404959" y="320.4" style="stroke: #000000; stroke-width: 0.8"/>
      </g>
     </g>
     <g id="text_10">
      <!-- 20:00 -->
      <g transform="translate(522.167165 353.15084) rotate(-45) scale(0.1 -0.1)">
       <use xlink:href="#DejaVuSans-32"/>
       <use xlink:href="#DejaVuSans-30" x="63.623047"/>
       <use xlink:href="#DejaVuSans-3a" x="127.246094"/>
       <use xlink:href="#DejaVuSans-30" x="160.9375"/>
       <use xlink:href="#DejaVuSans-30" x="224.560547"/>
      </g>
     </g>
    </g>
    <g id="xtick_11">
     <g id="line2d_21">
      <path d="M 576.520661 320.4 
L 576.520661 43.2 
" clip-path="url(#pbbc62acb06)" style="fill: none; stroke: #b0b0b0; stroke-opacity: 0.6; stroke-width: 0.8; stroke-linecap: square"/>
     </g>
     <g id="line2d_22">
      <g>
       <use xlink:href="#mcb27bbad81" x="576.520661" y="320.4" style="stroke: #000000; stroke-width: 0.8"/>
      </g>
     </g>
     <g id="text_11">
      <!-- 22:00 -->
      <g transform="translate(568.282867 353.15084) rotate(-45) scale(0.1 -0.1)">
       <use xlink:href="#DejaVuSans-32"/>
       <use xlink:href="#DejaVuSans-32" x="63.623047"/>
       <use xlink:href="#DejaVuSans-3a" x="127.246094"/>
       <use xlink:href="#DejaVuSans-30" x="160.9375"/>
       <use xlink:href="#DejaVuSans-30" x="224.560547"/>
      </g>
     </g>
    </g>
    <g id="xtick_12">
     <g id="line2d_23">
      <path d="M 622.636364 320.4 
L 622.636364 43.2 
" clip-path="url(#pbbc62acb06)" style="fill: none; stroke: #b0b0b0; stroke-opacity: 0.6; stroke-width: 0.8; stroke-linecap: square"/>
     </g>
     <g id="line2d_24">
      <g>
       <use xlink:href="#mcb27bbad81" x="622.636364" y="320.4" style="stroke: #000000; stroke-width: 0.8"/>
      </g>
     </g>
     <g id="text_12">
      <!-- 24:00 -->
      <g transform="translate(614.39857 353.15084) rotate(-45) scale(0.1 -0.1)">
       <use xlink:href="#DejaVuSans-32"/>
       <use xlink:href="#DejaVuSans-34" x="63.623047"/>
       <use xlink:href="#DejaVuSans-3a" x="127.246094"/>
       <use xlink:href="#DejaVuSans-30" x="160.9375"/>
       <use xlink:href="#DejaVuSans-30" x="224.560547"/>
      </g>
     </g>
    </g>
    <g id="text_13">
     <!-- 时间 -->
     <g transform="translate(358.995654 392.795872) rotate(-45) scale(0.18 -0.18)">
      <defs>
       <path id="STSong-65f6" d="M 6093 3238 
Q 6144 3181 6144 3161 
Q 6144 3142 6061 3142 
L 5082 3142 
L 5082 -384 
Q 5082 -646 5046 -739 
Q 5011 -832 4803 -937 
Q 4595 -1043 4550 -1043 
Q 4506 -1043 4493 -992 
Q 4454 -806 4281 -697 
Q 4109 -589 3565 -448 
L 3584 -346 
Q 4186 -480 4406 -480 
Q 4627 -480 4707 -435 
Q 4787 -390 4787 -282 
L 4787 3142 
L 3232 3142 
Q 3053 3142 2854 3098 
L 2624 3309 
Q 2835 3283 3091 3283 
L 4787 3283 
L 4787 3962 
Q 4787 4742 4774 4890 
L 5229 4659 
Q 5299 4621 5299 4598 
Q 5299 4576 5229 4538 
L 5082 4454 
L 5082 3283 
L 5485 3283 
L 5715 3642 
L 6093 3238 
z
M 2618 4038 
L 2406 3891 
L 2406 1216 
Q 2406 698 2416 486 
Q 2426 275 2426 250 
Q 2426 166 2301 76 
Q 2176 -13 2147 -13 
Q 2118 -13 2118 115 
L 2118 410 
L 890 410 
L 890 -134 
Q 890 -192 867 -214 
Q 845 -237 752 -297 
Q 659 -358 620 -358 
Q 582 -358 582 -262 
Q 582 -166 592 198 
Q 602 563 602 1190 
L 602 3738 
Q 602 4147 582 4454 
L 966 4173 
L 2054 4173 
L 2221 4403 
L 2618 4147 
Q 2669 4109 2669 4089 
Q 2669 4070 2618 4038 
z
M 2118 2464 
L 2118 4032 
L 890 4032 
L 890 2464 
L 2118 2464 
z
M 2118 550 
L 2118 2323 
L 890 2323 
L 890 550 
L 2118 550 
z
M 3187 2483 
Q 3706 2086 3843 1888 
Q 3981 1690 3981 1546 
Q 3981 1402 3913 1306 
Q 3846 1210 3769 1210 
Q 3693 1210 3657 1267 
Q 3622 1325 3584 1510 
Q 3488 1997 3123 2432 
L 3187 2483 
z
" transform="scale(0.015625)"/>
       <path id="STSong-95f4" d="M 1152 4960 
Q 1766 4678 1910 4531 
Q 2054 4384 2054 4243 
Q 2054 4102 1990 4000 
Q 1926 3898 1865 3898 
Q 1805 3898 1757 3952 
Q 1709 4006 1696 4108 
Q 1683 4211 1532 4432 
Q 1382 4653 1114 4902 
L 1152 4960 
z
M 5875 4218 
L 5670 4096 
L 5670 -262 
Q 5670 -563 5625 -700 
Q 5581 -838 5389 -953 
Q 5197 -1069 5101 -1069 
Q 5069 -1069 5056 -1011 
Q 5018 -864 4867 -768 
Q 4717 -672 4282 -550 
L 4288 -461 
Q 4883 -550 5075 -550 
Q 5267 -550 5318 -502 
Q 5370 -454 5370 -326 
L 5370 4192 
L 3136 4192 
Q 2886 4192 2707 4122 
L 2528 4358 
Q 2835 4333 2995 4333 
L 5235 4333 
L 5504 4685 
L 5875 4307 
Q 5907 4275 5907 4256 
Q 5907 4237 5875 4218 
z
M 1286 3750 
L 1120 3648 
L 1120 365 
Q 1120 -294 1126 -486 
L 1133 -832 
Q 1133 -934 1001 -995 
Q 870 -1056 828 -1056 
Q 787 -1056 787 -941 
L 806 -442 
Q 819 -141 819 378 
L 819 3149 
Q 819 3578 794 4090 
L 1280 3846 
Q 1331 3821 1331 3801 
Q 1331 3782 1286 3750 
z
M 4493 2925 
L 4346 2829 
L 4346 973 
Q 4346 659 4358 474 
L 4384 160 
Q 4384 58 4253 6 
Q 4122 -45 4083 -45 
Q 4045 -45 4045 38 
L 4045 333 
L 2330 333 
L 2330 58 
Q 2330 -45 2211 -93 
Q 2093 -141 2048 -141 
Q 2003 -141 2003 -19 
L 2016 326 
Q 2029 544 2029 851 
L 2029 2714 
Q 2029 3059 2010 3373 
L 2413 3072 
L 3962 3072 
L 4160 3322 
L 4493 3053 
Q 4544 3008 4544 2982 
Q 4544 2957 4493 2925 
z
M 4045 1824 
L 4045 2931 
L 2330 2931 
L 2330 1824 
L 4045 1824 
z
M 4045 474 
L 4045 1683 
L 2330 1683 
L 2330 474 
L 4045 474 
z
" transform="scale(0.015625)"/>
      </defs>
      <use xlink:href="#STSong-65f6"/>
      <use xlink:href="#STSong-95f4" x="99.999985"/>
     </g>
    </g>
   </g>
   <g id="matplotlib.axis_2">
    <g id="ytick_1">
     <g id="line2d_25">
      <path d="M 90 307.8 
L 648 307.8 
" clip-path="url(#pbbc62acb06)" style="fill: none; stroke: #b0b0b0; stroke-opacity: 0.6; stroke-width: 0.8; stroke-linecap: square"/>
     </g>
     <g id="line2d_26">
      <defs>
       <path id="m77da9d5c2e" d="M 0 0 
L -3.5 0 
" style="stroke: #000000; stroke-width: 0.8"/>
      </defs>
      <g>
       <use xlink:href="#m77da9d5c2e" x="90" y="307.8" style="stroke: #000000; stroke-width: 0.8"/>
      </g>
     </g>
     <g id="text_14">
      <!-- 16°C -->
      <g transform="translate(58.292187 311.599219) scale(0.1 -0.1)">
       <defs>
        <path id="DejaVuSans-b0" d="M 1600 4347 
Q 1350 4347 1178 4173 
Q 1006 4000 1006 3750 
Q 1006 3503 1178 3333 
Q 1350 3163 1600 3163 
Q 1850 3163 2022 3333 
Q 2194 3503 2194 3750 
Q 2194 3997 2020 4172 
Q 1847 4347 1600 4347 
z
M 1600 4750 
Q 1800 4750 1984 4673 
Q 2169 4597 2303 4453 
Q 2447 4313 2519 4134 
Q 2591 3956 2591 3750 
Q 2591 3338 2302 3052 
Q 2013 2766 1594 2766 
Q 1172 2766 890 3047 
Q 609 3328 609 3750 
Q 609 4169 896 4459 
Q 1184 4750 1600 4750 
z
" transform="scale(0.015625)"/>
        <path id="DejaVuSans-43" d="M 4122 4306 
L 4122 3641 
Q 3803 3938 3442 4084 
Q 3081 4231 2675 4231 
Q 1875 4231 1450 3742 
Q 1025 3253 1025 2328 
Q 1025 1406 1450 917 
Q 1875 428 2675 428 
Q 3081 428 3442 575 
Q 3803 722 4122 1019 
L 4122 359 
Q 3791 134 3420 21 
Q 3050 -91 2638 -91 
Q 1578 -91 968 557 
Q 359 1206 359 2328 
Q 359 3453 968 4101 
Q 1578 4750 2638 4750 
Q 3056 4750 3426 4639 
Q 3797 4528 4122 4306 
z
" transform="scale(0.015625)"/>
       </defs>
       <use xlink:href="#DejaVuSans-31"/>
       <use xlink:href="#DejaVuSans-36" x="63.623047"/>
       <use xlink:href="#DejaVuSans-b0" x="127.246094"/>
       <use xlink:href="#DejaVuSans-43" x="177.246094"/>
      </g>
     </g>
    </g>
    <g id="ytick_2">
     <g id="line2d_27">
      <path d="M 90 288.415385 
L 648 288.415385 
" clip-path="url(#pbbc62acb06)" style="fill: none; stroke: #b0b0b0; stroke-opacity: 0.6; stroke-width: 0.8; stroke-linecap: square"/>
     </g>
     <g id="line2d_28">
      <g>
       <use xlink:href="#m77da9d5c2e" x="90" y="288.415385" style="stroke: #000000; stroke-width: 0.8"/>
      </g>
     </g>
     <g id="text_15">
      <!-- 17°C -->
      <g transform="translate(58.292187 292.214603) scale(0.1 -0.1)">
       <defs>
        <path id="DejaVuSans-37" d="M 525 4666 
L 3525 4666 
L 3525 4397 
L 1831 0 
L 1172 0 
L 2766 4134 
L 525 4134 
L 525 4666 
z
" transform="scale(0.015625)"/>
       </defs>
       <use xlink:href="#DejaVuSans-31"/>
       <use xlink:href="#DejaVuSans-37" x="63.623047"/>
       <use xlink:href="#DejaVuSans-b0" x="127.246094"/>
       <use xlink:href="#DejaVuSans-43" x="177.246094"/>
      </g>
     </g>
    </g>
    <g id="ytick_3">
     <g id="line2d_29">
      <path d="M 90 269.030769 
L 648 269.030769 
" clip-path="url(#pbbc62acb06)" style="fill: none; stroke: #b0b0b0; stroke-opacity: 0.6; stroke-width: 0.8; stroke-linecap: square"/>
     </g>
     <g id="line2d_30">
      <g>
       <use xlink:href="#m77da9d5c2e" x="90" y="269.030769" style="stroke: #000000; stroke-width: 0.8"/>
      </g>
     </g>
     <g id="text_16">
      <!-- 18°C -->
      <g transform="translate(58.292187 272.829988) scale(0.1 -0.1)">
       <use xlink:href="#DejaVuSans-31"/>
       <use xlink:href="#DejaVuSans-38" x="63.623047"/>
       <use xlink:href="#DejaVuSans-b0" x="127.246094"/>
       <use xlink:href="#DejaVuSans-43" x="177.246094"/>
      </g>
     </g>
    </g>
    <g id="ytick_4">
     <g id="line2d_31">
      <path d="M 90 249.646154 
L 648 249.646154 
" clip-path="url(#pbbc62acb06)" style="fill: none; stroke: #b0b0b0; stroke-opacity: 0.6; stroke-width: 0.8; stroke-linecap: square"/>
     </g>
     <g id="line2d_32">
      <g>
       <use xlink:href="#m77da9d5c2e" x="90" y="249.646154" style="stroke: #000000; stroke-width: 0.8"/>
      </g>
     </g>
     <g id="text_17">
      <!-- 19°C -->
      <g transform="translate(58.292187 253.445373) scale(0.1 -0.1)">
       <defs>
        <path id="DejaVuSans-39" d="M 703 97 
L 703 672 
Q 941 559 1184 500 
Q 1428 441 1663 441 
Q 2288 441 2617 861 
Q 2947 1281 2994 2138 
Q 2813 1869 2534 1725 
Q 2256 1581 1919 1581 
Q 1219 1581 811 2004 
Q 403 2428 403 3163 
Q 403 3881 828 4315 
Q 1253 4750 1959 4750 
Q 2769 4750 3195 4129 
Q 3622 3509 3622 2328 
Q 3622 1225 3098 567 
Q 2575 -91 1691 -91 
Q 1453 -91 1209 -44 
Q 966 3 703 97 
z
M 1959 2075 
Q 2384 2075 2632 2365 
Q 2881 2656 2881 3163 
Q 2881 3666 2632 3958 
Q 2384 4250 1959 4250 
Q 1534 4250 1286 3958 
Q 1038 3666 1038 3163 
Q 1038 2656 1286 2365 
Q 1534 2075 1959 2075 
z
" transform="scale(0.015625)"/>
       </defs>
       <use xlink:href="#DejaVuSans-31"/>
       <use xlink:href="#DejaVuSans-39" x="63.623047"/>
       <use xlink:href="#DejaVuSans-b0" x="127.246094"/>
       <use xlink:href="#DejaVuSans-43" x="177.246094"/>
      </g>
     </g>
    </g>
    <g id="ytick_5">
     <g id="line2d_33">
      <path d="M 90 230.261538 
L 648 230.261538 
" clip-path="url(#pbbc62acb06)" style="fill: none; stroke: #b0b0b0; stroke-opacity: 0.6; stroke-width: 0.8; stroke-linecap: square"/>
     </g>
     <g id="line2d_34">
      <g>
       <use xlink:href="#m77da9d5c2e" x="90" y="230.261538" style="stroke: #000000; stroke-width: 0.8"/>
      </g>
     </g>
     <g id="text_18">
      <!-- 20°C -->
      <g transform="translate(58.292187 234.060757) scale(0.1 -0.1)">
       <use xlink:href="#DejaVuSans-32"/>
       <use xlink:href="#DejaVuSans-30" x="63.623047"/>
       <use xlink:href="#DejaVuSans-b0" x="127.246094"/>
       <use xlink:href="#DejaVuSans-43" x="177.246094"/>
      </g>
     </g>
    </g>
    <g id="ytick_6">
     <g id="line2d_35">
      <path d="M 90 210.876923 
L 648 210.876923 
" clip-path="url(#pbbc62acb06)" style="fill: none; stroke: #b0b0b0; stroke-opacity: 0.6; stroke-width: 0.8; stroke-linecap: square"/>
     </g>
     <g id="line2d_36">
      <g>
       <use xlink:href="#m77da9d5c2e" x="90" y="210.876923" style="stroke: #000000; stroke-width: 0.8"/>
      </g>
     </g>
     <g id="text_19">
      <!-- 21°C -->
      <g transform="translate(58.292187 214.676142) scale(0.1 -0.1)">
       <use xlink:href="#DejaVuSans-32"/>
       <use xlink:href="#DejaVuSans-31" x="63.623047"/>
       <use xlink:href="#DejaVuSans-b0" x="127.246094"/>
       <use xlink:href="#DejaVuSans-43" x="177.246094"/>
      </g>
     </g>
    </g>
    <g id="ytick_7">
     <g id="line2d_37">
      <path d="M 90 191.492308 
L 648 191.492308 
" clip-path="url(#pbbc62acb06)" style="fill: none; stroke: #b0b0b0; stroke-opacity: 0.6; stroke-width: 0.8; stroke-linecap: square"/>
     </g>
     <g id="line2d_38">
      <g>
       <use xlink:href="#m77da9d5c2e" x="90" y="191.492308" style="stroke: #000000; stroke-width: 0.8"/>
      </g>
     </g>
     <g id="text_20">
      <!-- 22°C -->
      <g transform="translate(58.292187 195.291526) scale(0.1 -0.1)">
       <use xlink:href="#DejaVuSans-32"/>
       <use xlink:href="#DejaVuSans-32" x="63.623047"/>
       <use xlink:href="#DejaVuSans-b0" x="127.246094"/>
       <use xlink:href="#DejaVuSans-43" x="177.246094"/>
      </g>
     </g>
    </g>
    <g id="ytick_8">
     <g id="line2d_39">
      <path d="M 90 172.107692 
L 648 172.107692 
" clip-path="url(#pbbc62acb06)" style="fill: none; stroke: #b0b0b0; stroke-opacity: 0.6; stroke-width: 0.8; stroke-linecap: square"/>
     </g>
     <g id="line2d_40">
      <g>
       <use xlink:href="#m77da9d5c2e" x="90" y="172.107692" style="stroke: #000000; stroke-width: 0.8"/>
      </g>
     </g>
     <g id="text_21">
      <!-- 23°C -->
      <g transform="translate(58.292187 175.906911) scale(0.1 -0.1)">
       <defs>
        <path id="DejaVuSans-33" d="M 2597 2516 
Q 3050 2419 3304 2112 
Q 3559 1806 3559 1356 
Q 3559 666 3084 287 
Q 2609 -91 1734 -91 
Q 1441 -91 1130 -33 
Q 819 25 488 141 
L 488 750 
Q 750 597 1062 519 
Q 1375 441 1716 441 
Q 2309 441 2620 675 
Q 2931 909 2931 1356 
Q 2931 1769 2642 2001 
Q 2353 2234 1838 2234 
L 1294 2234 
L 1294 2753 
L 1863 2753 
Q 2328 2753 2575 2939 
Q 2822 3125 2822 3475 
Q 2822 3834 2567 4026 
Q 2313 4219 1838 4219 
Q 1578 4219 1281 4162 
Q 984 4106 628 3988 
L 628 4550 
Q 988 4650 1302 4700 
Q 1616 4750 1894 4750 
Q 2613 4750 3031 4423 
Q 3450 4097 3450 3541 
Q 3450 3153 3228 2886 
Q 3006 2619 2597 2516 
z
" transform="scale(0.015625)"/>
       </defs>
       <use xlink:href="#DejaVuSans-32"/>
       <use xlink:href="#DejaVuSans-33" x="63.623047"/>
       <use xlink:href="#DejaVuSans-b0" x="127.246094"/>
       <use xlink:href="#DejaVuSans-43" x="177.246094"/>
      </g>
     </g>
    </g>
    <g id="ytick_9">
     <g id="line2d_41">
      <path d="M 90 152.723077 
L 648 152.723077 
" clip-path="url(#pbbc62acb06)" style="fill: none; stroke: #b0b0b0; stroke-opacity: 0.6; stroke-width: 0.8; stroke-linecap: square"/>
     </g>
     <g id="line2d_42">
      <g>
       <use xlink:href="#m77da9d5c2e" x="90" y="152.723077" style="stroke: #000000; stroke-width: 0.8"/>
      </g>
     </g>
     <g id="text_22">
      <!-- 24°C -->
      <g transform="translate(58.292187 156.522296) scale(0.1 -0.1)">
       <use xlink:href="#DejaVuSans-32"/>
       <use xlink:href="#DejaVuSans-34" x="63.623047"/>
       <use xlink:href="#DejaVuSans-b0" x="127.246094"/>
       <use xlink:href="#DejaVuSans-43" x="177.246094"/>
      </g>
     </g>
    </g>
    <g id="ytick_10">
     <g id="line2d_43">
      <path d="M 90 133.338462 
L 648 133.338462 
" clip-path="url(#pbbc62acb06)" style="fill: none; stroke: #b0b0b0; stroke-opacity: 0.6; stroke-width: 0.8; stroke-linecap: square"/>
     </g>
     <g id="line2d_44">
      <g>
       <use xlink:href="#m77da9d5c2e" x="90" y="133.338462" style="stroke: #000000; stroke-width: 0.8"/>
      </g>
     </g>
     <g id="text_23">
      <!-- 25°C -->
      <g transform="translate(58.292187 137.13768) scale(0.1 -0.1)">
       <defs>
        <path id="DejaVuSans-35" d="M 691 4666 
L 3169 4666 
L 3169 4134 
L 1269 4134 
L 1269 2991 
Q 1406 3038 1543 3061 
Q 1681 3084 1819 3084 
Q 2600 3084 3056 2656 
Q 3513 2228 3513 1497 
Q 3513 744 3044 326 
Q 2575 -91 1722 -91 
Q 1428 -91 1123 -41 
Q 819 9 494 109 
L 494 744 
Q 775 591 1075 516 
Q 1375 441 1709 441 
Q 2250 441 2565 725 
Q 2881 1009 2881 1497 
Q 2881 1984 2565 2268 
Q 2250 2553 1709 2553 
Q 1456 2553 1204 2497 
Q 953 2441 691 2322 
L 691 4666 
z
" transform="scale(0.015625)"/>
       </defs>
       <use xlink:href="#DejaVuSans-32"/>
       <use xlink:href="#DejaVuSans-35" x="63.623047"/>
       <use xlink:href="#DejaVuSans-b0" x="127.246094"/>
       <use xlink:href="#DejaVuSans-43" x="177.246094"/>
      </g>
     </g>
    </g>
    <g id="ytick_11">
     <g id="line2d_45">
      <path d="M 90 113.953846 
L 648 113.953846 
" clip-path="url(#pbbc62acb06)" style="fill: none; stroke: #b0b0b0; stroke-opacity: 0.6; stroke-width: 0.8; stroke-linecap: square"/>
     </g>
     <g id="line2d_46">
      <g>
       <use xlink:href="#m77da9d5c2e" x="90" y="113.953846" style="stroke: #000000; stroke-width: 0.8"/>
      </g>
     </g>
     <g id="text_24">
      <!-- 26°C -->
      <g transform="translate(58.292187 117.753065) scale(0.1 -0.1)">
       <use xlink:href="#DejaVuSans-32"/>
       <use xlink:href="#DejaVuSans-36" x="63.623047"/>
       <use xlink:href="#DejaVuSans-b0" x="127.246094"/>
       <use xlink:href="#DejaVuSans-43" x="177.246094"/>
      </g>
     </g>
    </g>
    <g id="ytick_12">
     <g id="line2d_47">
      <path d="M 90 94.569231 
L 648 94.569231 
" clip-path="url(#pbbc62acb06)" style="fill: none; stroke: #b0b0b0; stroke-opacity: 0.6; stroke-width: 0.8; stroke-linecap: square"/>
     </g>
     <g id="line2d_48">
      <g>
       <use xlink:href="#m77da9d5c2e" x="90" y="94.569231" style="stroke: #000000; stroke-width: 0.8"/>
      </g>
     </g>
     <g id="text_25">
      <!-- 27°C -->
      <g transform="translate(58.292187 98.36845) scale(0.1 -0.1)">
       <use xlink:href="#DejaVuSans-32"/>
       <use xlink:href="#DejaVuSans-37" x="63.623047"/>
       <use xlink:href="#DejaVuSans-b0" x="127.246094"/>
       <use xlink:href="#DejaVuSans-43" x="177.246094"/>
      </g>
     </g>
    </g>
    <g id="ytick_13">
     <g id="line2d_49">
      <path d="M 90 75.184615 
L 648 75.184615 
" clip-path="url(#pbbc62acb06)" style="fill: none; stroke: #b0b0b0; stroke-opacity: 0.6; stroke-width: 0.8; stroke-linecap: square"/>
     </g>
     <g id="line2d_50">
      <g>
       <use xlink:href="#m77da9d5c2e" x="90" y="75.184615" style="stroke: #000000; stroke-width: 0.8"/>
      </g>
     </g>
     <g id="text_26">
      <!-- 28°C -->
      <g transform="translate(58.292187 78.983834) scale(0.1 -0.1)">
       <use xlink:href="#DejaVuSans-32"/>
       <use xlink:href="#DejaVuSans-38" x="63.623047"/>
       <use xlink:href="#DejaVuSans-b0" x="127.246094"/>
       <use xlink:href="#DejaVuSans-43" x="177.246094"/>
      </g>
     </g>
    </g>
    <g id="text_27">
     <!-- 温度 -->
     <g transform="translate(49.665625 199.8) rotate(-90) scale(0.18 -0.18)">
      <defs>
       <path id="STSong-6e29" d="M 5293 4384 
L 5126 4256 
L 5126 3046 
Q 5126 2726 5145 2534 
Q 5165 2342 5165 2310 
Q 5165 2221 5037 2173 
Q 4909 2125 4873 2125 
Q 4838 2125 4838 2202 
L 4838 2400 
L 2784 2400 
L 2784 2214 
Q 2784 2150 2765 2124 
Q 2746 2099 2656 2060 
Q 2566 2022 2524 2022 
Q 2483 2022 2483 2131 
L 2502 2470 
Q 2509 2669 2509 2950 
L 2509 4134 
Q 2509 4499 2490 4794 
L 2861 4486 
L 4736 4486 
L 4883 4774 
L 5293 4493 
Q 5338 4461 5338 4438 
Q 5338 4416 5293 4384 
z
M 4838 3578 
L 4838 4346 
L 2784 4346 
L 2784 3578 
L 4838 3578 
z
M 4838 2541 
L 4838 3437 
L 2784 3437 
L 2784 2541 
L 4838 2541 
z
M 717 4627 
Q 1690 4352 1690 3930 
Q 1690 3821 1629 3744 
Q 1568 3667 1510 3667 
Q 1453 3667 1421 3699 
Q 1389 3731 1309 3910 
Q 1229 4090 1101 4234 
Q 973 4378 685 4557 
L 717 4627 
z
M 2234 4102 
Q 1318 1101 1273 947 
Q 1229 794 1229 419 
Q 1229 45 1270 -172 
Q 1312 -390 1312 -550 
Q 1312 -877 1069 -877 
Q 966 -877 928 -819 
Q 890 -762 890 -621 
Q 890 -480 950 -153 
Q 1011 173 1011 345 
Q 1011 518 976 608 
Q 941 698 870 726 
Q 800 755 630 796 
Q 461 838 269 858 
L 269 954 
Q 461 947 617 947 
Q 774 947 876 988 
Q 979 1030 1040 1136 
Q 1101 1242 1197 1498 
L 2150 4141 
L 2234 4102 
z
M 262 3194 
Q 826 3066 1043 2922 
Q 1261 2778 1261 2554 
Q 1261 2451 1209 2377 
Q 1158 2304 1084 2304 
Q 1011 2304 954 2445 
Q 870 2662 688 2822 
Q 506 2982 230 3130 
L 262 3194 
z
M 6074 -448 
Q 6125 -499 6125 -531 
Q 6125 -563 6029 -563 
L 1946 -563 
Q 1696 -563 1517 -634 
L 1338 -397 
Q 1645 -422 1805 -422 
L 2131 -422 
L 2131 1261 
Q 2131 1453 2112 1888 
L 2445 1638 
L 5037 1638 
L 5210 1914 
L 5568 1613 
Q 5613 1581 5613 1555 
Q 5613 1530 5568 1504 
L 5395 1402 
L 5395 -422 
L 5530 -422 
L 5728 -109 
L 6074 -448 
z
M 5114 -422 
L 5114 1498 
L 4390 1498 
L 4390 -422 
L 5114 -422 
z
M 4115 -422 
L 4115 1498 
L 3360 1498 
L 3360 -422 
L 4115 -422 
z
M 3091 -422 
L 3091 1498 
L 2413 1498 
L 2413 -422 
L 3091 -422 
z
" transform="scale(0.015625)"/>
       <path id="STSong-5ea6" d="M 2925 4909 
Q 3200 4870 3392 4796 
Q 3584 4723 3661 4646 
Q 3738 4570 3738 4445 
Q 3738 4320 3686 4233 
Q 3635 4147 3548 4147 
Q 3462 4147 3379 4378 
Q 3347 4467 3206 4611 
Q 3066 4755 2899 4851 
L 2925 4909 
z
M 6010 4019 
Q 6054 3974 6054 3952 
Q 6054 3930 5984 3930 
L 1338 3930 
L 1338 2515 
Q 1338 909 1050 128 
Q 762 -653 230 -1043 
L 179 -986 
Q 672 -365 857 300 
Q 1043 966 1043 2470 
L 1043 3635 
Q 1043 4051 1024 4384 
L 1453 4070 
L 5312 4070 
L 5594 4448 
L 6010 4019 
z
M 6022 2938 
Q 6074 2899 6074 2876 
Q 6074 2854 6010 2854 
L 4557 2854 
L 4557 2438 
L 4570 1830 
Q 4570 1734 4442 1699 
Q 4314 1664 4301 1664 
Q 4256 1664 4256 1766 
L 4256 1856 
L 2893 1856 
L 2893 1779 
Q 2893 1722 2867 1699 
Q 2842 1677 2755 1638 
Q 2669 1600 2630 1600 
Q 2592 1600 2592 1683 
L 2598 2227 
L 2598 2854 
L 2189 2854 
Q 1939 2854 1760 2784 
L 1581 3014 
Q 1888 2989 2048 2989 
L 2598 2989 
L 2598 3251 
Q 2598 3578 2579 3840 
L 3046 3622 
Q 3078 3610 3078 3587 
Q 3078 3565 3046 3539 
L 2893 3424 
L 2893 2989 
L 4256 2989 
L 4256 3238 
Q 4256 3686 4237 3859 
L 4678 3661 
Q 4730 3635 4730 3612 
Q 4730 3590 4685 3558 
L 4557 3462 
L 4557 2989 
L 5338 2989 
L 5581 3309 
L 6022 2938 
z
M 4256 1997 
L 4256 2854 
L 2893 2854 
L 2893 1997 
L 4256 1997 
z
M 6227 -666 
Q 6016 -666 5859 -749 
Q 5702 -832 5651 -960 
Q 5638 -986 5600 -986 
Q 5485 -986 4739 -765 
Q 3994 -544 3565 -282 
Q 2720 -947 864 -1107 
L 864 -1011 
Q 2445 -749 3347 -115 
Q 2790 365 2541 1120 
L 2317 1120 
Q 2131 1120 1984 1050 
L 1805 1286 
Q 2112 1261 2272 1261 
L 4358 1261 
L 4563 1498 
L 4934 1210 
Q 4966 1184 4966 1161 
Q 4966 1139 4912 1126 
Q 4858 1114 4787 1059 
Q 4717 1005 4678 954 
Q 4250 307 3789 -102 
Q 4653 -544 6227 -563 
L 6227 -666 
z
M 4384 1120 
L 2675 1120 
Q 2963 435 3539 38 
Q 4147 544 4384 1120 
z
" transform="scale(0.015625)"/>
      </defs>
      <use xlink:href="#STSong-6e29"/>
      <use xlink:href="#STSong-5ea6" x="99.999985"/>
     </g>
    </g>
   </g>
   <g id="line2d_51">
    <path d="M 115.363636 172.107692 
L 161.479339 269.030769 
L 207.595041 113.953846 
L 253.710744 307.8 
L 299.826446 75.184615 
L 345.942149 210.876923 
L 392.057851 288.415385 
L 438.173554 249.646154 
L 484.289256 113.953846 
L 530.404959 230.261538 
L 576.520661 172.107692 
L 622.636364 152.723077 
" clip-path="url(#pbbc62acb06)" style="fill: none; stroke: #ff0000; stroke-width: 1.5; stroke-linecap: square"/>
   </g>
   <g id="line2d_52">
    <path d="M 115.363636 249.646154 
L 161.479339 249.646154 
L 207.595041 152.723077 
L 253.710744 75.184615 
L 299.826446 113.953846 
L 345.942149 191.492308 
L 392.057851 191.492308 
L 438.173554 94.569231 
L 484.289256 210.876923 
L 530.404959 152.723077 
L 576.520661 55.8 
L 622.636364 307.8 
" clip-path="url(#pbbc62acb06)" style="fill: none; stroke: #0000ff; stroke-width: 1.5; stroke-linecap: square"/>
   </g>
   <g id="patch_3">
    <path d="M 90 320.4 
L 90 43.2 
" style="fill: none; stroke: #000000; stroke-width: 0.8; stroke-linejoin: miter; stroke-linecap: square"/>
   </g>
   <g id="patch_4">
    <path d="M 648 320.4 
L 648 43.2 
" style="fill: none; stroke: #000000; stroke-width: 0.8; stroke-linejoin: miter; stroke-linecap: square"/>
   </g>
   <g id="patch_5">
    <path d="M 90 320.4 
L 648 320.4 
" style="fill: none; stroke: #000000; stroke-width: 0.8; stroke-linejoin: miter; stroke-linecap: square"/>
   </g>
   <g id="patch_6">
    <path d="M 90 43.2 
L 648 43.2 
" style="fill: none; stroke: #000000; stroke-width: 0.8; stroke-linejoin: miter; stroke-linecap: square"/>
   </g>
   <g id="text_28">
    <!-- 一天随机温度变化表 -->
    <g style="fill: #008000" transform="translate(288 37.2) scale(0.18 -0.18)">
     <defs>
      <path id="STSong-4e00" d="M 6106 2342 
Q 6163 2285 6163 2253 
Q 6163 2221 6067 2221 
L 851 2221 
Q 589 2221 422 2157 
L 243 2394 
Q 550 2368 710 2368 
L 5382 2368 
L 5670 2797 
L 6106 2342 
z
" transform="scale(0.015625)"/>
      <path id="STSong-5929" d="M 6125 -371 
L 6118 -461 
Q 5600 -442 5440 -698 
Q 5421 -723 5395 -723 
Q 5306 -723 4717 -262 
Q 4128 198 3776 841 
Q 3424 1485 3322 2458 
L 3270 2458 
Q 3110 1133 2441 339 
Q 1773 -454 314 -947 
L 288 -864 
Q 1594 -275 2198 461 
Q 2803 1197 2963 2458 
L 896 2458 
Q 646 2458 467 2387 
L 288 2624 
Q 595 2598 755 2598 
L 2976 2598 
Q 3053 3341 3066 4211 
L 1478 4211 
Q 1242 4211 1069 4147 
L 896 4378 
Q 1184 4352 1344 4352 
L 4909 4352 
L 5178 4698 
L 5568 4352 
Q 5638 4288 5638 4249 
Q 5638 4211 5536 4211 
L 3392 4211 
Q 3302 2707 3283 2598 
L 5318 2598 
L 5574 2938 
L 5952 2592 
Q 6029 2522 6029 2490 
Q 6029 2458 5926 2458 
L 3418 2458 
Q 3693 1242 4387 518 
Q 5082 -205 6125 -371 
z
" transform="scale(0.015625)"/>
      <path id="STSong-968f" d="M 6042 3885 
Q 6106 3827 6106 3801 
Q 6106 3776 6003 3776 
L 4186 3776 
Q 4019 3430 3853 3174 
L 4077 3027 
L 5216 3027 
L 5382 3264 
L 5741 3014 
Q 5798 2976 5798 2950 
Q 5798 2925 5747 2893 
L 5600 2797 
L 5600 525 
Q 5600 294 5561 185 
Q 5523 77 5372 -38 
Q 5222 -154 5187 -154 
Q 5152 -154 5139 -77 
Q 5107 147 4538 230 
L 4538 326 
Q 4826 288 4982 288 
Q 5139 288 5219 323 
Q 5299 358 5299 474 
L 5299 1184 
L 4070 1184 
L 4070 154 
Q 4070 64 4048 29 
Q 4026 -6 3936 -57 
Q 3846 -109 3804 -109 
Q 3763 -109 3763 19 
L 3776 429 
Q 3782 678 3782 954 
L 3782 3053 
Q 3514 2630 3142 2259 
L 3078 2317 
Q 3514 2880 3904 3776 
L 3763 3776 
Q 3456 3776 3277 3706 
L 3098 3942 
Q 3309 3917 3565 3917 
L 3962 3917 
Q 4154 4365 4301 4928 
L 4634 4755 
Q 4723 4710 4723 4684 
Q 4723 4659 4621 4614 
Q 4563 4589 4451 4342 
Q 4339 4096 4250 3917 
L 5440 3917 
L 5683 4237 
L 6042 3885 
z
M 5299 2202 
L 5299 2886 
L 4070 2886 
L 4070 2202 
L 5299 2202 
z
M 5299 1325 
L 5299 2061 
L 4070 2061 
L 4070 1325 
L 5299 1325 
z
M 2278 4326 
Q 2317 4301 2317 4281 
Q 2317 4262 2240 4224 
Q 2163 4186 2083 4086 
Q 2003 3987 1901 3782 
L 1395 2733 
Q 1677 2381 1843 2118 
Q 2010 1856 2070 1673 
Q 2131 1491 2131 1286 
Q 2131 864 1859 694 
Q 1587 525 1510 525 
Q 1478 525 1452 608 
Q 1427 691 1299 780 
Q 1171 870 966 915 
L 979 1018 
Q 1171 986 1379 986 
Q 1587 986 1708 1107 
Q 1830 1229 1830 1485 
Q 1830 1862 1267 2694 
L 1786 4237 
L 928 4237 
L 928 474 
Q 928 -198 934 -422 
L 941 -819 
Q 941 -928 809 -992 
Q 678 -1056 640 -1056 
Q 602 -1056 602 -928 
L 621 -320 
Q 634 58 634 486 
L 634 3750 
Q 634 4179 608 4685 
L 992 4378 
L 1728 4378 
L 1894 4602 
L 2278 4326 
z
M 2413 4186 
Q 2733 3910 2854 3728 
Q 2976 3546 2976 3398 
Q 2976 3251 2889 3155 
Q 2803 3059 2688 3059 
Q 2592 3059 2592 3290 
Q 2592 3571 2550 3718 
Q 2509 3866 2349 4128 
L 2413 4186 
z
M 6163 -518 
Q 5766 -634 5709 -781 
Q 5683 -838 5619 -838 
Q 5158 -838 4579 -809 
Q 4000 -781 3747 -739 
Q 3494 -698 3312 -576 
Q 3130 -454 2976 -240 
Q 2822 -26 2755 -26 
Q 2688 -26 2605 -109 
Q 2522 -192 2317 -477 
Q 2112 -762 2080 -832 
Q 2048 -902 2025 -902 
Q 2003 -902 1952 -851 
L 1722 -621 
L 2605 64 
L 2605 2048 
L 2400 2048 
Q 2182 2048 2048 1990 
L 1901 2195 
Q 2042 2170 2285 2170 
L 2541 2170 
L 2733 2426 
L 3046 2144 
Q 3098 2099 3098 2073 
Q 3098 2048 3046 2022 
L 2893 1939 
L 2893 211 
Q 2893 0 3101 -185 
Q 3309 -371 3654 -444 
Q 4000 -518 4771 -518 
Q 5542 -518 6163 -435 
L 6163 -518 
z
" transform="scale(0.015625)"/>
      <path id="STSong-673a" d="M 2829 3386 
Q 2886 3334 2886 3305 
Q 2886 3277 2803 3277 
L 1664 3277 
L 1664 2509 
Q 2016 2394 2246 2262 
Q 2477 2131 2560 2022 
Q 2643 1914 2643 1792 
Q 2643 1670 2601 1596 
Q 2560 1523 2509 1523 
Q 2394 1523 2320 1702 
Q 2246 1882 2064 2074 
Q 1882 2266 1664 2374 
L 1664 454 
Q 1664 -250 1670 -467 
L 1677 -851 
Q 1677 -960 1545 -1008 
Q 1414 -1056 1376 -1056 
Q 1338 -1056 1338 -941 
L 1357 -339 
Q 1370 32 1370 467 
L 1370 2541 
Q 1030 1555 294 429 
L 224 493 
Q 915 1696 1338 3277 
L 845 3277 
Q 595 3277 416 3206 
L 237 3443 
Q 480 3418 704 3418 
L 1370 3418 
L 1370 3994 
Q 1370 4422 1344 4928 
L 1811 4685 
Q 1862 4659 1862 4633 
Q 1862 4608 1824 4582 
L 1664 4474 
L 1664 3418 
L 2195 3418 
L 2432 3757 
L 2829 3386 
z
M 5971 806 
Q 5997 250 6038 80 
Q 6080 -90 6202 -179 
Q 6240 -205 6240 -240 
Q 6240 -275 6163 -425 
Q 6086 -576 5936 -646 
Q 5786 -717 5418 -717 
Q 5050 -717 4931 -675 
Q 4813 -634 4777 -486 
Q 4742 -339 4742 58 
L 4742 4147 
L 3571 4147 
L 3571 1894 
Q 3571 730 3168 45 
Q 2765 -640 2010 -1062 
L 1965 -992 
Q 2643 -474 2953 156 
Q 3264 787 3264 1869 
L 3264 4557 
L 3622 4294 
L 4595 4294 
L 4806 4595 
L 5254 4256 
Q 5286 4230 5286 4208 
Q 5286 4186 5248 4166 
L 5030 4051 
L 5030 45 
Q 5030 -192 5056 -288 
Q 5082 -384 5158 -413 
Q 5235 -442 5433 -442 
Q 5632 -442 5712 -378 
Q 5792 -314 5827 -70 
Q 5862 173 5882 806 
L 5971 806 
z
" transform="scale(0.015625)"/>
      <path id="STSong-53d8" d="M 2650 4922 
Q 3539 4646 3539 4237 
Q 3539 4122 3478 4038 
Q 3418 3955 3334 3955 
Q 3251 3955 3206 4115 
Q 3072 4557 2611 4864 
L 2650 4922 
z
M 5888 3840 
Q 5933 3795 5933 3766 
Q 5933 3738 5869 3738 
L 3987 3738 
L 3987 2874 
Q 3987 2515 4000 2336 
L 4013 2054 
Q 4013 1958 3881 1920 
Q 3750 1882 3712 1882 
Q 3674 1882 3674 1997 
L 3680 2880 
L 3680 3738 
L 2733 3738 
L 2733 2848 
L 2746 2061 
Q 2746 1984 2723 1955 
Q 2701 1926 2611 1891 
Q 2522 1856 2467 1856 
Q 2413 1856 2413 1978 
L 2426 2349 
Q 2432 2566 2432 2854 
L 2432 3738 
L 1050 3738 
Q 800 3738 621 3667 
L 442 3904 
Q 749 3878 909 3878 
L 5178 3878 
L 5466 4282 
L 5888 3840 
z
M 1978 3002 
Q 2010 2976 2010 2953 
Q 2010 2931 1958 2924 
Q 1907 2918 1824 2880 
Q 1741 2842 1715 2810 
Q 1357 2445 339 1664 
L 262 1734 
Q 1094 2483 1632 3302 
L 1978 3002 
z
M 4486 3155 
Q 4864 3014 5155 2873 
Q 5446 2733 5625 2598 
Q 5805 2464 5856 2368 
Q 5907 2272 5907 2153 
Q 5907 2035 5862 1964 
Q 5818 1894 5741 1894 
Q 5664 1894 5558 2092 
Q 5453 2291 5158 2563 
Q 4864 2835 4454 3091 
L 4486 3155 
z
M 6208 -627 
Q 5683 -666 5536 -909 
Q 5517 -934 5485 -934 
Q 5376 -934 4569 -684 
Q 3763 -435 3213 -96 
Q 2208 -768 346 -1088 
L 320 -979 
Q 1978 -582 2970 70 
Q 2304 563 1875 1459 
L 1658 1459 
Q 1472 1459 1325 1389 
L 1146 1626 
Q 1453 1600 1613 1600 
L 4262 1600 
L 4518 1875 
L 4909 1530 
Q 4954 1491 4954 1465 
Q 4954 1440 4890 1434 
Q 4678 1414 4538 1203 
Q 4109 576 3450 70 
Q 4525 -467 6208 -544 
L 6208 -627 
z
M 4294 1459 
L 2054 1459 
Q 2470 672 3187 218 
Q 3853 730 4294 1459 
z
" transform="scale(0.015625)"/>
      <path id="STSong-5316" d="M 1933 4922 
L 2381 4678 
Q 2458 4634 2458 4608 
Q 2458 4582 2368 4547 
Q 2278 4512 2230 4467 
Q 2182 4422 2099 4262 
Q 1798 3661 1491 3142 
L 1798 3040 
Q 1850 3021 1850 3001 
Q 1850 2982 1798 2938 
L 1638 2810 
L 1638 262 
Q 1638 -237 1651 -496 
Q 1664 -755 1664 -781 
Q 1664 -896 1536 -957 
Q 1408 -1018 1366 -1018 
Q 1325 -1018 1325 -864 
L 1338 -378 
Q 1344 -83 1344 275 
L 1344 2899 
Q 736 1914 211 1331 
L 147 1389 
Q 1478 3366 1933 4922 
z
M 5747 947 
Q 5741 358 5773 121 
Q 5805 -115 5984 -205 
Q 6016 -224 6016 -269 
Q 6016 -314 5926 -442 
Q 5837 -570 5705 -650 
Q 5574 -730 5468 -749 
Q 5363 -768 5056 -768 
Q 4749 -768 4313 -755 
Q 3878 -742 3747 -720 
Q 3616 -698 3533 -634 
Q 3450 -570 3411 -451 
Q 3373 -333 3373 -115 
L 3373 1555 
Q 2573 954 1850 621 
L 1811 691 
Q 2758 1350 3373 1862 
L 3373 4134 
Q 3373 4499 3354 4896 
L 3827 4691 
Q 3891 4666 3891 4627 
Q 3891 4589 3827 4544 
L 3680 4442 
L 3680 2125 
Q 4634 2976 5139 3878 
L 5542 3552 
Q 5587 3514 5587 3488 
Q 5587 3462 5481 3449 
Q 5376 3437 5315 3405 
Q 5254 3373 5197 3302 
Q 4576 2528 3680 1792 
L 3680 -122 
Q 3680 -275 3731 -355 
Q 3782 -435 4086 -451 
Q 4390 -467 4809 -467 
Q 5229 -467 5347 -412 
Q 5466 -358 5536 -73 
Q 5606 211 5645 947 
L 5747 947 
z
" transform="scale(0.015625)"/>
      <path id="STSong-8868" d="M 6195 -563 
Q 5901 -557 5725 -605 
Q 5549 -653 5446 -787 
Q 5427 -813 5408 -813 
Q 5306 -813 4733 -435 
Q 4160 -58 3782 505 
Q 3405 1069 3245 1869 
Q 2918 1478 2381 1030 
L 2381 -493 
L 3706 64 
L 3744 -26 
L 2752 -595 
Q 2355 -826 2176 -1037 
Q 2150 -1062 2134 -1062 
Q 2118 -1062 2099 -1037 
L 1830 -710 
Q 1971 -627 2028 -560 
Q 2086 -493 2086 -390 
L 2086 800 
Q 1158 109 288 -256 
L 230 -173 
Q 1946 826 2874 1888 
L 877 1888 
Q 627 1888 448 1818 
L 269 2067 
Q 576 2042 736 2042 
L 3104 2042 
L 3104 2816 
L 1645 2816 
Q 1395 2816 1216 2746 
L 1037 2982 
Q 1344 2957 1504 2957 
L 3104 2957 
L 3104 3776 
L 1216 3776 
Q 966 3776 787 3706 
L 576 3949 
Q 851 3917 1075 3917 
L 3104 3917 
Q 3104 4480 3078 4954 
L 3565 4710 
Q 3622 4685 3622 4659 
Q 3622 4634 3578 4602 
L 3405 4480 
L 3405 3917 
L 5171 3917 
L 5414 4262 
L 5888 3872 
Q 5939 3827 5939 3801 
Q 5939 3776 5869 3776 
L 3405 3776 
L 3405 2957 
L 4704 2957 
L 4934 3290 
L 5363 2918 
Q 5421 2874 5421 2845 
Q 5421 2816 5344 2816 
L 3405 2816 
L 3405 2042 
L 5370 2042 
L 5626 2368 
L 6035 2003 
Q 6099 1946 6099 1917 
Q 6099 1888 6003 1888 
L 3366 1888 
Q 3616 1165 3949 736 
Q 4710 1184 5171 1555 
L 5530 1178 
Q 5562 1146 5562 1117 
Q 5562 1088 5488 1101 
Q 5414 1114 5340 1114 
Q 5267 1114 5116 1062 
Q 4966 1011 4045 627 
Q 4838 -275 6195 -486 
L 6195 -563 
z
" transform="scale(0.015625)"/>
     </defs>
     <use xlink:href="#STSong-4e00"/>
     <use xlink:href="#STSong-5929" x="99.999985"/>
     <use xlink:href="#STSong-968f" x="199.999969"/>
     <use xlink:href="#STSong-673a" x="299.999954"/>
     <use xlink:href="#STSong-6e29" x="399.999939"/>
     <use xlink:href="#STSong-5ea6" x="499.999924"/>
     <use xlink:href="#STSong-53d8" x="599.999908"/>
     <use xlink:href="#STSong-5316" x="699.999893"/>
     <use xlink:href="#STSong-8868" x="799.999878"/>
    </g>
   </g>
   <g id="legend_1">
    <g id="patch_7">
     <path d="M 562.05 110.053125 
L 635.4 110.053125 
Q 639 110.053125 639 106.453125 
L 639 55.8 
Q 639 52.2 635.4 52.2 
L 562.05 52.2 
Q 558.45 52.2 558.45 55.8 
L 558.45 106.453125 
Q 558.45 110.053125 562.05 110.053125 
z
" style="fill: #ffffff; opacity: 0.8; stroke: #cccccc; stroke-linejoin: miter"/>
    </g>
    <g id="line2d_53">
     <path d="M 565.65 65.7 
L 583.65 65.7 
L 601.65 65.7 
" style="fill: none; stroke: #ff0000; stroke-width: 1.5; stroke-linecap: square"/>
    </g>
    <g id="text_29">
     <!-- a1 -->
     <g transform="translate(616.05 72) scale(0.18 -0.18)">
      <defs>
       <path id="STSong-61" d="M 2554 403 
L 2637 358 
Q 2451 -102 2125 -102 
Q 1926 -102 1814 10 
Q 1702 122 1702 333 
Q 1350 64 1180 -19 
Q 1011 -102 755 -102 
Q 339 -102 339 237 
Q 339 538 707 877 
Q 1075 1216 1715 1453 
L 1715 1888 
Q 1715 2093 1600 2224 
Q 1485 2355 1293 2355 
Q 1069 2355 909 2204 
Q 749 2054 717 1786 
Q 704 1677 611 1600 
Q 518 1523 416 1523 
Q 371 1523 323 1545 
Q 275 1568 275 1619 
Q 275 1709 441 1984 
Q 608 2259 857 2406 
Q 1107 2554 1344 2554 
Q 1741 2554 1920 2397 
Q 2099 2240 2099 1894 
L 2099 595 
Q 2099 448 2108 368 
Q 2118 288 2176 246 
Q 2234 205 2291 205 
Q 2432 205 2554 403 
z
M 1715 653 
L 1715 1312 
Q 1306 1152 1043 889 
Q 781 627 781 410 
Q 781 288 861 208 
Q 941 128 1062 128 
Q 1235 128 1475 304 
Q 1715 480 1715 653 
z
" transform="scale(0.015625)"/>
       <path id="STSong-31" d="M 2272 -19 
Q 1939 0 1523 0 
Q 1107 0 774 -19 
L 774 83 
L 1107 141 
Q 1331 186 1331 390 
L 1331 3552 
L 570 3059 
L 480 3181 
Q 922 3469 1542 4064 
L 1754 4064 
L 1754 390 
Q 1754 173 1978 134 
L 2272 83 
L 2272 -19 
z
" transform="scale(0.015625)"/>
      </defs>
      <use xlink:href="#STSong-61"/>
      <use xlink:href="#STSong-31" x="40.599991"/>
     </g>
    </g>
    <g id="line2d_54">
     <path d="M 565.65 91.926562 
L 583.65 91.926562 
L 601.65 91.926562 
" style="fill: none; stroke: #0000ff; stroke-width: 1.5; stroke-linecap: square"/>
    </g>
    <g id="text_30">
     <!-- a2 -->
     <g transform="translate(616.05 98.226562) scale(0.18 -0.18)">
      <defs>
       <path id="STSong-32" d="M 2726 -19 
Q 2266 0 1421 0 
Q 595 0 141 -19 
Q 262 230 448 454 
Q 634 678 1043 1088 
Q 1638 1683 1913 2102 
Q 2189 2522 2189 2950 
Q 2189 3302 1968 3520 
Q 1747 3738 1421 3738 
Q 1101 3738 838 3517 
Q 576 3296 474 2893 
L 326 2918 
Q 429 3462 755 3763 
Q 1082 4064 1549 4064 
Q 2016 4064 2342 3753 
Q 2669 3443 2669 3008 
Q 2669 2573 2365 2192 
Q 2061 1811 1446 1242 
Q 1120 941 634 339 
L 2138 339 
Q 2381 339 2480 425 
Q 2579 512 2688 800 
L 2822 800 
L 2726 -19 
z
" transform="scale(0.015625)"/>
      </defs>
      <use xlink:href="#STSong-61"/>
      <use xlink:href="#STSong-32" x="40.599991"/>
     </g>
    </g>
   </g>
  </g>
 </g>
 <defs>
  <clipPath id="pbbc62acb06">
   <rect x="90" y="43.2" width="558" height="277.2"/>
  </clipPath>
 </defs>
</svg>
